<svg width="8" height="12" viewBox="0 0 8 12" fill="none" xmlns="http://www.w3.org/2000/svg">
<path d="M0.835744 0.881922H1.98368L2.10346 1.79598C2.82293 1.18157 3.74808 0.807881 4.72869 0.735641C6.86481 0.735641 8.00271 2.25299 8.00271 4.58383C8.00271 7.16147 6.31582 8.66048 4.42925 8.66048C3.57539 8.60479 2.76834 8.28208 2.14336 7.74643V9.07182V11.6221H0.745941L0.835744 0.881922ZM6.60528 4.53814C6.60528 2.87456 5.98642 1.79598 4.43924 1.79598C3.58919 1.87012 2.80116 2.23581 2.23323 2.81971V6.78668C2.78162 7.24776 3.4865 7.52212 4.2296 7.56366C5.60709 7.54538 6.60528 6.42106 6.60528 4.55638V4.53814Z" fill="#4C3E3E"/>
</svg>
