<svg width="54" height="56" viewBox="0 0 54 56" fill="none" xmlns="http://www.w3.org/2000/svg">
<path d="M53.3657 0.355079C52.3109 2.21319 51.5833 4.21215 51.2096 6.27814C50.6105 9.12199 50.2104 11.998 50.0118 14.8885C49.7722 18.0694 49.6524 21.488 49.6524 25.1442C49.6524 28.8005 49.8121 32.4384 50.1316 36.0581C50.451 39.6777 50.8702 43.1328 51.3893 46.4234C51.8364 49.3767 52.4561 52.3059 53.2459 55.1984H35.5481C35.7078 54.589 35.8675 53.9309 36.0272 53.224C36.1869 52.5171 36.3466 51.6762 36.5063 50.7012C35.1244 52.0683 33.5056 53.2172 31.715 54.1015C29.8046 54.966 27.7309 55.4873 25.6061 55.6371C22.851 55.8668 20.074 55.5551 17.461 54.7231C14.8486 53.8658 12.4591 52.5212 10.4437 50.7743C8.29004 48.9289 6.58888 46.6857 5.45278 44.1931C4.15859 41.3414 3.48062 38.2869 3.45641 35.1989C3.61612 31.1039 3.61612 27.1917 3.45641 23.4624C3.2967 20.2449 3.01718 16.9909 2.61791 13.7003C2.37901 10.977 1.65054 8.30862 0.461853 5.80281L18.4292 0.318481C16.9997 2.99972 16.1264 5.90075 15.8539 8.87402C15.4131 12.4068 15.1732 15.9581 15.1352 19.5136C15.0953 23.0967 15.1352 26.4483 15.255 29.5682C15.3861 31.9073 15.3661 34.2513 15.1951 36.5882C15.1152 37.685 14.9155 39.1476 14.5961 40.9757C14.2783 42.7699 14.1779 44.5907 14.2967 46.4051C14.374 48.0647 14.8876 49.6828 15.794 51.1217C16.6724 52.4745 18.2295 53.1509 20.4655 53.1509C22.3823 53.1152 24.2658 52.684 25.9755 51.8895C27.9473 51.0135 29.7482 49.8462 31.3058 48.4344C33.0097 46.8895 34.4438 45.1137 35.558 43.1694C36.7431 41.1581 37.5146 38.9645 37.8339 36.6979C38.3895 33.227 38.7228 29.7294 38.8321 26.2228C38.9205 23.2047 38.8406 20.1843 38.5925 17.1737C38.4119 14.8068 38.0112 12.4583 37.3947 10.1537C37.0273 8.60366 36.3796 7.12074 35.4782 5.76627L53.3657 0.355079Z" fill="black"/>
</svg>
