<svg width="7" height="6" viewBox="0 0 7 6" fill="none" xmlns="http://www.w3.org/2000/svg">
<path d="M6.76044 3.18593C6.76242 3.71097 6.59408 4.22469 6.27676 4.66201C5.95945 5.09932 5.50745 5.44052 4.9781 5.64228C4.44875 5.84405 3.86586 5.8973 3.30341 5.79532C2.74096 5.69333 2.22424 5.4407 1.8188 5.06944C1.41337 4.69817 1.13749 4.22501 1.02612 3.70996C0.914742 3.19491 0.972901 2.66115 1.19323 2.17642C1.41357 1.69168 1.78611 1.27778 2.26367 0.987209C2.74124 0.696637 3.3023 0.542489 3.87567 0.544297C4.63995 0.546706 5.37219 0.825785 5.91262 1.32066C6.45305 1.81554 6.75781 2.48607 6.76044 3.18593Z" fill="#FCFAFF"/>
</svg>
