<svg width="52" height="79" viewBox="0 0 52 79" fill="none" xmlns="http://www.w3.org/2000/svg">
<path d="M41.1254 61.2518C40.3121 63.6604 39.2072 65.9782 37.8314 68.162C36.4331 70.415 34.6543 72.4511 32.561 74.1948C31.6202 75.0143 30.511 75.6544 29.2978 76.0781C28.0846 76.5018 26.7916 76.7005 25.4938 76.6627C23.5295 76.6641 21.6026 76.1708 19.9239 75.2368C18.4274 74.3503 17.2094 73.1216 16.3904 71.672C15.4365 70.0202 14.7633 68.2448 14.394 66.4071C13.9251 64.254 13.6248 62.073 13.4956 59.8807C13.1699 57.2558 13.4765 54.5976 14.394 52.093C15.0676 50.412 16.1775 48.9062 17.6281 47.7055C18.916 46.6948 20.3988 45.9136 22.0002 45.4021C23.584 44.8902 25.0613 44.3966 26.4321 43.9213C27.6967 43.4931 28.8567 42.8408 29.8459 42.0018C30.3402 41.4985 30.7172 40.9082 30.954 40.267C31.1909 39.6258 31.2825 38.9471 31.2234 38.2724C31.2938 37.7176 31.1836 37.1561 30.9065 36.6584C30.6295 36.1608 30.198 35.7492 29.6662 35.4754C28.4831 34.9546 27.2027 34.6444 25.8931 34.5614C24.4058 34.4517 22.8386 34.3603 21.1617 34.2872C19.5444 34.2273 17.9563 33.8731 16.4902 33.2451C14.9923 32.5687 13.7889 31.4474 13.0764 30.0642C12.2379 28.5652 11.8886 26.3531 12.0782 23.4282C12.2279 20.7971 12.5613 18.1776 13.0764 15.5856C13.4787 13.3437 14.2247 11.165 15.2924 9.11409C16.2069 7.34161 17.5769 5.7985 19.2851 4.61693C21.1178 3.41452 23.3192 2.77455 25.5737 2.78882C26.8714 2.75107 28.1645 2.9498 29.3777 3.37347C30.5909 3.79713 31.7 4.4373 32.6408 5.25678C34.7342 7.00051 36.513 9.03662 37.9112 11.2895C39.2871 13.4733 40.392 15.7912 41.2053 18.1998C41.8315 19.8835 42.2141 21.6352 42.3432 23.4099L51.2071 9.15064C49.2626 5.95336 46.1108 3.51575 42.3432 2.29522C38.2935 1.04014 34.0411 0.422029 29.7661 0.467113C25.7059 0.419869 21.6694 1.03902 17.8477 2.29522C14.5058 3.38496 11.4176 5.0408 8.74429 7.1763C6.24264 9.20118 4.20664 11.6622 2.75518 14.4156C1.2623 17.2305 0.387303 20.2864 0.179842 23.4099C-0.152887 26.9199 0.386129 29.5706 1.7969 31.3622C3.14942 33.1262 5.07884 34.4513 7.3069 35.1464C9.67677 35.8918 12.1678 36.2627 14.6735 36.2432H21.9802C23.6538 36.2155 25.3261 36.3441 26.9711 36.6271C28.302 36.8831 28.9675 37.5229 28.9675 38.5467C29.0196 39.1823 28.8428 39.8159 28.4643 40.3508C28.0857 40.8857 27.5262 41.2922 26.8713 41.5082C25.1717 42.0854 23.402 42.4721 21.6009 42.6599C19.4781 42.9159 17.1823 43.2205 14.7134 43.574C12.3352 43.9077 10.0424 44.6323 7.94572 45.7128C5.8125 46.8517 4.08046 48.5266 2.9548 50.5391C1.66714 52.6962 1.15806 55.7126 1.39763 59.5882C1.5123 62.3358 2.37711 65.0133 3.91304 67.376C5.46436 69.7553 7.5213 71.8253 9.96204 73.4635C12.625 75.2495 15.6029 76.6036 18.766 77.4671C22.3003 78.4424 25.9752 78.9232 29.6662 78.893C33.9808 78.9436 38.2737 78.3255 42.3632 77.0649C46.1308 75.8444 49.2826 73.4068 51.227 70.2095L42.3632 55.9503C42.2105 57.7601 41.7943 59.543 41.1254 61.2518Z" fill="black"/>
</svg>
