<svg width="4" height="4" viewBox="0 0 4 4" fill="none" xmlns="http://www.w3.org/2000/svg">
<path d="M3.54169 2.19199C3.54168 2.49609 3.4431 2.79335 3.25839 3.04607C3.07368 3.2988 2.81115 3.4956 2.50415 3.61155C2.19714 3.72751 1.85949 3.75735 1.53393 3.69736C1.20836 3.63736 0.909564 3.4902 0.675441 3.27453C0.441317 3.05885 0.282386 2.78442 0.218812 2.48594C0.155239 2.18747 0.189906 1.87838 0.318363 1.59794C0.446819 1.31751 0.663257 1.07836 0.94034 0.910728C1.21742 0.743097 1.54265 0.654574 1.87474 0.656384C2.09449 0.65638 2.31209 0.696147 2.51499 0.77343C2.71789 0.850714 2.90205 0.963945 3.05698 1.10666C3.2119 1.24938 3.33452 1.41877 3.41771 1.60503C3.50089 1.79129 3.54301 1.99076 3.54169 2.19199Z" fill="#362E39"/>
</svg>
