<svg width="13" height="9" viewBox="0 0 13 9" fill="none" xmlns="http://www.w3.org/2000/svg">
<path d="M0.698669 0.881912H2.12607L3.35388 5.25107C3.53355 5.96403 3.68327 6.64956 3.84298 7.35338H3.91286C4.09253 6.64956 4.2722 5.95489 4.47184 5.25107L5.74948 0.881912H7.10706L8.3947 5.25107C8.59434 5.96403 8.77402 6.64956 8.96367 7.35338H9.03355C9.21323 6.64956 9.3629 5.96403 9.54257 5.25107L10.7504 0.881912H12.078L9.862 8.44111H8.16514L6.97729 4.3827C6.77766 3.66974 6.61795 2.96591 6.41831 2.20725H6.34843C6.16876 2.96591 6.00904 3.68804 5.77946 4.401L4.63152 8.44111H2.99448L0.698669 0.881912Z" fill="#4C3E3E"/>
</svg>
