<svg width="43" height="57" viewBox="0 0 43 57" fill="none" xmlns="http://www.w3.org/2000/svg">
<path d="M15.4773 3.21975C14.2308 3.49774 13.0656 4.02183 12.0635 4.75536C11.2989 5.32958 10.6676 6.03822 10.2069 6.83943C9.84837 7.45609 9.60546 8.12346 9.48822 8.81376C9.42551 9.21378 9.38554 9.61651 9.36844 10.0203C9.26601 11.1197 9.40968 12.2267 9.79071 13.2734C10.1717 14.3202 10.7821 15.2847 11.5844 16.1079C13.2919 17.7014 15.3275 18.969 17.5735 19.8373C20.0091 20.8244 22.6709 21.7568 25.559 22.6343C28.3621 23.4893 31.0431 24.6494 33.5445 26.0894C36.0322 27.5264 38.1558 29.4337 39.7731 31.6834C41.4501 33.9869 42.3684 37.0763 42.5281 40.9519C42.6878 44.3888 42.0224 47.1675 40.5318 49.2882C39.1453 51.2934 37.2563 52.9667 35.0218 54.1692C32.8932 55.2937 30.5597 56.0555 28.1343 56.4178C26.0176 56.7569 23.8746 56.9403 21.7259 56.9662C18.9226 57.031 16.1332 56.5836 13.5209 55.6499C11.4181 54.8679 9.45887 53.7952 7.71142 52.469C6.20416 51.3187 4.89213 49.9694 3.81848 48.4655C2.82029 47.0396 1.9619 45.7781 1.2432 44.6813L8.90926 29.7639C10.5064 38.4657 12.5426 44.8275 15.0181 48.8494C17.4936 52.8712 20.4084 54.8822 23.7623 54.8822C25.0405 54.8822 26.3049 54.6394 27.4755 54.1692C28.6368 53.7249 29.7094 53.1071 30.6497 52.3411C31.5841 51.5529 32.3375 50.6021 32.8657 49.5441C33.4164 48.4814 33.7027 47.3201 33.7041 46.1438C33.784 43.097 33.0054 40.6838 31.3684 38.9044C29.6747 37.1094 27.5951 35.6532 25.2595 34.6267C22.6797 33.4785 20.0106 32.507 17.2741 31.72C14.5008 30.9116 11.8251 29.8458 9.28857 28.5391C6.85293 27.2921 4.74686 25.5695 3.1198 23.4935C1.48277 21.4094 0.624315 18.5393 0.544461 14.8831C0.403957 12.2621 1.18022 9.66838 2.7604 7.47922C4.17842 5.66154 6.04601 4.1769 8.21052 3.14661C10.3665 2.12284 12.6946 1.43698 15.098 1.11744C17.1546 0.806053 19.2327 0.628874 21.3167 0.587269C24.1692 0.53596 27.0144 0.868584 29.7614 1.57446C31.9105 2.14369 33.9508 3.01313 35.8104 4.15211C37.3646 5.11231 38.7741 6.25552 40.0027 7.55236C41.0215 8.634 41.9428 9.78952 42.7577 11.0075L32.9356 24.7183C32.2138 21.458 31.2329 18.2503 30.0009 15.1208C29.0277 12.5724 27.7205 10.1415 26.108 7.88141C24.9014 6.1391 23.2324 4.70513 21.2568 3.71332C19.4698 2.87917 17.402 2.70259 15.4773 3.21975Z" fill="black"/>
</svg>
