<svg width="12" height="11" viewBox="0 0 12 11" fill="none" xmlns="http://www.w3.org/2000/svg">
<path d="M11.4701 5.75108C11.47 6.78735 11.1344 7.80033 10.5054 8.66184C9.87652 9.52334 8.98263 10.1947 7.93692 10.5908C6.89122 10.987 5.74075 11.0901 4.63099 10.8873C3.52122 10.6844 2.50209 10.1847 1.70259 9.45131C0.903092 8.71792 0.359142 7.78386 0.139578 6.76728C-0.0799851 5.7507 0.0346843 4.6973 0.469118 3.74042C0.903552 2.78355 1.63819 1.9662 2.58009 1.3918C3.52198 0.817389 4.62881 0.511749 5.76046 0.513558C7.27566 0.515979 8.72787 1.06882 9.79835 2.05078C10.8688 3.03275 11.4701 4.36358 11.4701 5.75108Z" fill="#362E39"/>
</svg>
