<svg width="12" height="9" viewBox="0 0 12 9" fill="none" xmlns="http://www.w3.org/2000/svg">
<path d="M0.591675 0.881908H1.74954L1.85933 1.97873H1.90923C2.2181 1.6157 2.60529 1.31478 3.04662 1.09463C3.48795 0.874483 3.97398 0.739845 4.47457 0.699086C4.97802 0.660456 5.4805 0.783425 5.89575 1.04693C6.311 1.31044 6.61317 1.69803 6.75046 2.14325C7.07025 1.74243 7.47772 1.40705 7.94689 1.1584C8.41607 0.909749 8.93664 0.753317 9.47549 0.699086C11.1724 0.699086 11.9809 1.72281 11.9809 3.65147V8.44111H10.5934V3.81599C10.5934 2.40834 10.1044 1.80506 9.05626 1.80506C8.64252 1.85598 8.24497 1.98557 7.88914 2.18549C7.5333 2.3854 7.22703 2.65123 6.99001 2.96592V8.45026H5.59253V3.82514C5.59253 2.41749 5.10344 1.81421 4.05535 1.81421C3.64266 1.86833 3.24644 1.99929 2.89108 2.19893C2.53573 2.39857 2.22876 2.6627 1.9891 2.97507V8.4594H0.591675V0.881908Z" fill="#4C3E3E"/>
</svg>
