<svg width="7" height="9" viewBox="0 0 7 9" fill="none" xmlns="http://www.w3.org/2000/svg">
<path d="M-0.00183105 4.67521C-0.00183105 2.21641 1.80485 0.699097 3.71139 0.699097C5.80758 0.699097 6.99546 2.07932 6.99546 4.24563C6.99893 4.48749 6.97888 4.72912 6.93557 4.96772H1.37567C1.3567 5.30842 1.41366 5.64908 1.54309 5.96897C1.67252 6.28887 1.8717 6.58133 2.12851 6.82846C2.38532 7.0756 2.69441 7.27231 3.03689 7.40656C3.37938 7.5408 3.74813 7.60979 4.12068 7.60935C4.83662 7.59334 5.53132 7.38338 6.11705 7.00604L6.61614 7.83786C5.81959 8.34685 4.87235 8.62108 3.90105 8.62394C1.74497 8.62394 -0.00183105 7.1523 -0.00183105 4.67521ZM5.76765 4.05366C5.76765 2.54547 5.01901 1.71368 3.77128 1.71368C3.12522 1.75334 2.52026 2.01785 2.08038 2.45295C1.6405 2.88805 1.39903 3.46076 1.40558 4.05366H5.76765Z" fill="#4C3E3E"/>
</svg>
