<svg width="1728" height="906" viewBox="0 0 1728 906" fill="none" xmlns="http://www.w3.org/2000/svg">
<mask id="path-1-inside-1_33_70" fill="white">
<path d="M1740.5 38.38C1723.3 35.2786 1709 15.6363 1704 6.20282L1405.5 43.0321L172 37.9923L25 0C14.6 26.9823 -18.3333 33.211 -33.5 32.9525L-72 170.578L-57 666.416L-49.5 906L552.5 901.348H1217H1637L1756 906V860.642V801.327L1750 584.616V143.44L1745.5 77.5353L1740.5 38.38Z"/>
</mask>
<path d="M1704 6.20282L2531.01 -432.138L2229.14 -1001.69L1589.38 -922.753L1704 6.20282ZM1740.5 38.38L2668.96 -80.1812L2582.03 -760.975L1906.6 -882.765L1740.5 38.38ZM1745.5 77.5353L2679.33 13.7736L2677.45 -13.7051L2673.96 -41.0259L1745.5 77.5353ZM1750 143.44H2686V111.522L2683.83 79.6786L1750 143.44ZM1750 584.616H814V597.571L814.359 610.521L1750 584.616ZM1756 801.327H2692V788.372L2691.64 775.423L1756 801.327ZM1756 906L1719.44 1841.29L2692 1879.31V906H1756ZM1637 901.348L1673.56 -33.9377L1655.29 -34.6521H1637V901.348ZM552.5 901.348V-34.6521H548.883L545.267 -34.6242L552.5 901.348ZM-49.5 906L-985.042 935.286L-956.437 1849.04L-42.2671 1841.97L-49.5 906ZM-57 666.416L-992.572 694.719L-992.557 695.21L-992.542 695.702L-57 666.416ZM-72 170.578L-973.394 -81.5831L-1011.89 56.0395L-1007.57 198.88L-72 170.578ZM-33.5 32.9525L-17.5523 -902.912L-740.186 -915.226L-934.894 -219.208L-33.5 32.9525ZM25 0L259.214 -906.223L-548.378 -1114.95L-848.371 -336.63L25 0ZM172 37.9923L-62.2142 944.215L51.1193 973.506L168.176 973.984L172 37.9923ZM1405.5 43.0321L1401.68 979.024L1461.12 979.267L1520.12 971.988L1405.5 43.0321ZM876.985 444.544C916.739 519.547 972.956 602.054 1049.28 679.911C1112.74 744.644 1287.98 907.879 1574.4 959.525L1906.6 -882.765C2175.82 -834.221 2335.31 -682.357 2386.07 -630.579C2449.69 -565.677 2496.26 -497.708 2531.01 -432.138L876.985 444.544ZM812.039 156.941L817.039 196.097L2673.96 -41.0259L2668.96 -80.1812L812.039 156.941ZM811.674 141.297L816.174 207.202L2683.83 79.6786L2679.33 13.7736L811.674 141.297ZM814 143.44V584.616H2686V143.44H814ZM814.359 610.521L820.359 827.232L2691.64 775.423L2685.64 558.711L814.359 610.521ZM820 801.327V860.642H2692V801.327H820ZM820 860.642V906H2692V860.642H820ZM1792.56 -29.2856L1673.56 -33.9377L1600.44 1836.63L1719.44 1841.29L1792.56 -29.2856ZM1637 -34.6521H1217V1837.35H1637V-34.6521ZM1217 -34.6521H552.5V1837.35H1217V-34.6521ZM545.267 -34.6242L-56.7329 -29.9721L-42.2671 1841.97L559.733 1837.32L545.267 -34.6242ZM886.042 876.714L878.542 637.129L-992.542 695.702L-985.042 935.286L886.042 876.714ZM878.572 638.113L863.572 142.275L-1007.57 198.88L-992.572 694.719L878.572 638.113ZM829.394 422.738L867.894 285.113L-934.894 -219.208L-973.394 -81.5831L829.394 422.738ZM-49.4477 968.817C69.3837 970.842 215.533 951.595 366.21 887.027C524.645 819.134 773.832 659.739 898.371 336.63L-848.371 -336.63C-734.232 -632.757 -506.711 -775.546 -371.135 -833.644C-243.316 -888.417 -121.217 -904.678 -17.5523 -902.912L-49.4477 968.817ZM-209.214 906.223L-62.2142 944.215L406.214 -868.23L259.214 -906.223L-209.214 906.223ZM168.176 973.984L1401.68 979.024L1409.32 -892.96L175.824 -898L168.176 973.984ZM1520.12 971.988L1818.62 935.159L1589.38 -922.753L1290.88 -885.924L1520.12 971.988Z" fill="#191919" mask="url(#path-1-inside-1_33_70)"/>
</svg>
