<svg width="51" height="57" viewBox="0 0 51 57" fill="none" xmlns="http://www.w3.org/2000/svg">
<path d="M51 48.3009C49.1101 51.4548 46.0513 53.8862 42.3756 55.1563C38.5319 56.408 34.4767 57.0269 30.3974 56.9845C24.4083 56.9845 19.4773 56.1252 15.6043 54.4068C11.9809 52.8722 8.81651 50.5578 6.38108 47.6611C4.10119 44.8745 2.48896 41.6789 1.64969 38.2829C0.776201 34.8485 0.334124 31.3341 0.332082 27.8078C0.322613 24.3681 0.785411 20.9409 1.70958 17.6069C2.56954 14.2927 4.28843 11.2168 6.72086 8.63933C9.15328 6.0619 12.2277 4.05872 15.6842 2.79923C19.5571 1.26362 24.4483 0.49585 30.3575 0.49585C34.4368 0.453392 38.492 1.0723 42.3357 2.32396C46.0114 3.59407 49.0702 6.02548 50.9601 9.17937L42.1461 23.4386C42.0292 21.6671 41.6669 19.9164 41.068 18.2285C40.3096 15.8358 39.2862 13.5203 38.0136 11.3182C36.7606 9.09603 35.1449 7.06176 33.2223 5.28549C32.3891 4.47179 31.3756 3.83059 30.2497 3.40494C29.1238 2.97929 27.9115 2.77902 26.6942 2.81753C23.1806 2.89065 20.4655 3.69504 18.549 5.23065C16.5977 6.81433 15.132 8.83712 14.2967 11.0989C13.3359 13.6818 12.7912 16.3792 12.6796 19.106C12.5199 22.0675 12.4401 24.9742 12.4401 27.8261C12.4401 30.6779 12.5199 33.6943 12.6796 36.8752C12.8042 39.7979 13.3478 42.6928 14.2967 45.4856C15.1024 47.9498 16.5635 50.1924 18.549 52.012C20.4655 53.7304 23.1806 54.6262 26.6942 54.6993C27.9115 54.7378 29.1238 54.5375 30.2497 54.1118C31.3756 53.6862 32.3891 53.0451 33.2223 52.2314C35.1449 50.4551 36.7606 48.4208 38.0136 46.1986C39.2862 43.9965 40.3096 41.6811 41.068 39.2884C41.6669 37.6005 42.0292 35.8497 42.1461 34.0782L51 48.3009Z" fill="black"/>
</svg>
