<svg width="8" height="9" viewBox="0 0 8 9" fill="none" xmlns="http://www.w3.org/2000/svg">
<path d="M0.192322 4.67521C0.192322 2.21641 1.99906 0.699097 3.89561 0.699097C6.00178 0.699097 7.18961 2.07932 7.18961 4.24563C7.19308 4.48749 7.17304 4.72912 7.12972 4.96772H1.56982C1.55086 5.30842 1.60787 5.64908 1.7373 5.96897C1.86674 6.28887 2.06591 6.58133 2.32273 6.82846C2.57954 7.0756 2.88856 7.27231 3.23105 7.40656C3.57354 7.5408 3.94228 7.60979 4.31483 7.60935C5.03077 7.59334 5.72547 7.38338 6.3112 7.00604L6.81029 7.83786C6.01375 8.34685 5.06656 8.62108 4.09526 8.62394C1.93918 8.62394 0.192322 7.1523 0.192322 4.67521ZM5.96186 4.05366C5.96186 2.54547 5.21322 1.71368 3.96549 1.71368C3.31944 1.75334 2.71442 2.01785 2.27453 2.45295C1.83465 2.88805 1.59325 3.46076 1.5998 4.05366H5.96186Z" fill="#4C3E3E"/>
</svg>
