<svg width="7" height="9" viewBox="0 0 7 9" fill="none" xmlns="http://www.w3.org/2000/svg">
<path d="M0.48999 7.57274L1.17874 6.73183C1.83994 7.30082 2.70716 7.6263 3.61425 7.64588C4.69229 7.64588 5.23137 7.11576 5.23137 6.47592C5.23137 5.69898 4.23317 5.35163 3.34478 5.04085C2.18689 4.65695 0.889228 4.12679 0.889228 2.86539C0.889228 1.604 1.88744 0.717331 3.7241 0.717331C4.65922 0.728746 5.5629 1.02824 6.28944 1.56745L5.63061 2.38092C5.09993 1.97312 4.43627 1.73841 3.74402 1.71368C2.74584 1.71368 2.22682 2.21641 2.22682 2.8014C2.22682 3.3864 3.12515 3.78858 4.05346 4.1085C5.25128 4.51982 6.5689 4.95857 6.5689 6.39363C6.5689 7.62761 5.51083 8.64223 3.57435 8.64223C2.44358 8.61611 1.35607 8.23899 0.48999 7.57274Z" fill="#4C3E3E"/>
</svg>
