<svg width="5" height="4" viewBox="0 0 5 4" fill="none" xmlns="http://www.w3.org/2000/svg">
<path d="M4.6669 1.75107C4.6669 2.09637 4.55507 2.43392 4.34558 2.72103C4.13609 3.00813 3.83833 3.23186 3.48996 3.364C3.14159 3.49614 2.75828 3.53072 2.38845 3.46336C2.01861 3.396 1.67889 3.22974 1.41225 2.98558C1.14562 2.74142 0.964062 2.43033 0.890498 2.09166C0.816934 1.753 0.854642 1.402 0.998943 1.08299C1.14324 0.763979 1.38763 0.491263 1.70116 0.299427C2.01469 0.107591 2.38331 0.00524902 2.76039 0.00524902C3.26522 0.00765056 3.74862 0.192347 4.1056 0.519238C4.46258 0.846128 4.66427 1.28878 4.6669 1.75107Z" fill="#4B535C"/>
</svg>
