<svg width="7" height="9" viewBox="0 0 7 9" fill="none" xmlns="http://www.w3.org/2000/svg">
<path d="M0.0906677 7.57274L0.779418 6.73183C1.44266 7.2979 2.30868 7.62292 3.21499 7.64588C4.29303 7.64588 4.83205 7.11576 4.83205 6.47592C4.83205 5.69898 3.83391 5.35163 2.94552 5.04085C1.79761 4.65695 0.489966 4.12679 0.489966 2.86539C0.489966 1.604 1.54802 0.717331 3.33477 0.717331C4.26989 0.728746 5.17357 1.02824 5.90011 1.56745L5.23135 2.38092C4.70452 1.97318 4.04401 1.73835 3.35475 1.71368C2.35657 1.71368 1.83749 2.21641 1.83749 2.8014C1.83749 3.3864 2.72589 3.78858 3.66419 4.1085C4.85203 4.51982 6.17963 4.95857 6.17963 6.39363C6.17963 7.62761 5.11158 8.64223 3.18508 8.64223C2.05086 8.61817 0.959406 8.24092 0.0906677 7.57274Z" fill="#4C3E3E"/>
</svg>
