<svg width="60" height="78" viewBox="0 0 60 78" fill="none" xmlns="http://www.w3.org/2000/svg">
<path d="M57.7214 24.0552C56.8918 19.7185 55.1639 15.5672 52.6307 11.8252C51.0651 9.5534 49.0789 7.54901 46.7613 5.90207C45.5114 5.00656 44.175 4.21722 42.7686 3.54382C41.1415 2.76852 39.4281 2.15562 37.6579 1.71571C34.2763 0.907667 30.7912 0.520274 27.2967 0.563996H0.225917C1.37622 2.49613 2.16569 4.59076 2.56167 6.76129C3.22712 9.6497 3.84601 13.05 4.41831 16.9621C4.9906 20.8743 5.40985 25.1703 5.67603 29.8503C5.95552 34.5303 6.09525 39.3199 6.09525 44.2193C6.09525 46.8518 6.03537 49.8133 5.91559 53.1039C5.7958 56.3945 5.51632 59.5998 5.07711 62.7197C4.68452 65.6409 4.08431 68.5354 3.28036 71.385C2.76998 73.5682 1.67975 75.6026 0.10614 77.3081H26.7178C29.7041 77.328 32.6846 77.0645 35.6116 76.522C37.7463 76.128 39.8257 75.5148 41.8103 74.6938C43.5817 73.9552 45.256 73.0353 46.8012 71.9517C48.7546 70.5877 50.471 68.9605 51.892 67.1255C54.6112 63.4853 56.5052 59.3825 57.4619 55.06C58.6656 49.7639 59.2347 44.3634 59.1588 38.9543C59.1888 33.9577 58.7075 28.9696 57.7214 24.0552ZM46.7414 47.8207C46.7414 48.0766 46.6914 48.3325 46.6615 48.5884C46.6615 48.6981 46.6615 48.8078 46.6615 48.9175C46.6615 49.2283 46.5816 49.5391 46.5317 49.8316C46.2722 51.7633 45.9395 53.6554 45.5335 55.5078C45.4237 56.0197 45.304 56.5225 45.1842 57.0252C45.0112 57.7138 44.8315 58.3902 44.6452 59.0544C44.2858 60.3158 43.8966 61.5315 43.4673 62.7106C43.3076 63.1311 43.1479 63.5424 42.9782 63.9537C42.4341 65.3147 41.811 66.648 41.1116 67.9481C40.7922 68.5423 40.4628 69.0999 40.1134 69.63C39.764 70.1602 39.5444 70.4709 39.245 70.864C38.3327 72.0999 37.2261 73.2057 35.961 74.1454C34.5152 75.2645 32.702 75.9081 30.8103 75.9735C29.091 75.961 27.4178 75.4631 26.019 74.5476C24.6757 73.6956 23.4896 72.6526 22.5055 71.4581C22.3457 71.2479 22.176 71.0468 22.0163 70.8274C21.7168 70.4344 21.4374 70.0231 21.1679 69.6026C21.0081 69.3558 20.8584 69.0999 20.7187 68.8439C20.1348 67.8078 19.6474 66.7284 19.2613 65.6173C19.0617 65.0506 18.892 64.493 18.7523 63.9263C18.6524 63.515 18.5626 63.1037 18.4927 62.6832C18.3246 61.7128 18.2411 60.7316 18.2432 59.7491V18.0681C18.2399 17.2159 18.2933 16.3642 18.4029 15.5179C18.4528 15.1066 18.5227 14.6862 18.6125 14.284C18.7884 13.3705 19.0455 12.4718 19.3811 11.5966C19.6507 10.8906 19.9606 10.198 20.3094 9.52173C20.4691 9.21095 20.6388 8.90017 20.8185 8.60767C21.061 8.18089 21.3275 7.76597 21.6171 7.36457C21.7269 7.20918 21.8366 7.05378 21.9564 6.89839L22.3158 6.44136C23.4404 5.03913 24.8672 3.86316 26.5081 2.98624C27.9938 2.17385 29.6889 1.73846 31.4192 1.72484C33.7384 1.66749 35.9918 2.43394 37.7078 3.86372C38.9306 4.88689 39.9862 6.06594 40.8421 7.36457C41.1116 7.75761 41.3711 8.17806 41.6107 8.60767C41.7504 8.84532 41.8902 9.09212 42.02 9.34805C42.8307 10.941 43.4984 12.5917 44.0163 14.284C44.1461 14.6862 44.2759 15.0975 44.3857 15.5179C44.4955 15.9384 44.6352 16.432 44.745 16.8616C45.0977 18.3058 45.4071 19.75 45.6733 21.1942C45.7531 21.6056 45.823 22.026 45.8829 22.4373C46.0426 23.3514 46.1824 24.2654 46.3022 25.1795C46.4219 26.0935 46.5417 27.1447 46.6416 28.0953L46.7314 29.0094C46.7314 29.1922 46.7314 29.375 46.7813 29.5578C46.8911 30.7369 46.971 31.8795 47.0209 32.9947C47.1407 35.4321 47.2005 37.4248 47.2005 38.9726C47.258 41.9214 47.1113 44.8706 46.7613 47.8024L46.7414 47.8207Z" fill="black"/>
</svg>
