<svg width="3" height="3" viewBox="0 0 3 3" fill="none" xmlns="http://www.w3.org/2000/svg">
<path d="M2.45369 1.83663C2.45369 2.01741 2.39509 2.19417 2.28541 2.34448C2.17573 2.4948 2.01989 2.61193 1.8375 2.68112C1.6551 2.7503 1.45435 2.76844 1.26072 2.73317C1.0671 2.6979 0.889229 2.61084 0.74963 2.48301C0.610032 2.35518 0.514961 2.1923 0.476445 2.01499C0.43793 1.83768 0.457738 1.65391 0.533288 1.48689C0.608838 1.31987 0.736755 1.17711 0.900906 1.07667C1.06506 0.97623 1.25808 0.922577 1.4555 0.922577C1.72024 0.922577 1.97411 1.01889 2.16131 1.19031C2.34851 1.36173 2.45369 1.59421 2.45369 1.83663Z" fill="#362E39"/>
</svg>
