<svg width="8" height="9" viewBox="0 0 8 9" fill="none" xmlns="http://www.w3.org/2000/svg">
<path d="M0.578063 4.67524C0.529489 4.1689 0.59673 3.65883 0.775519 3.17763C0.954307 2.69642 1.24068 2.25468 1.6164 1.88052C1.99211 1.50637 2.4489 1.20804 2.95759 1.00463C3.46628 0.801212 4.01573 0.697174 4.5708 0.699124C5.47462 0.707078 6.34009 1.03458 6.98639 1.61318L6.26773 2.46324C5.83973 2.05031 5.252 1.80748 4.63069 1.78685C3.1434 1.78685 2.04537 2.96598 2.04537 4.70269C2.04537 6.43939 3.04354 7.59108 4.59073 7.59108C5.3165 7.56633 6.00647 7.296 6.52721 6.8324L7.13615 7.69161C6.40053 8.28572 5.45178 8.61109 4.47095 8.60567C2.25498 8.62395 0.578063 7.17061 0.578063 4.67524Z" fill="#4C3E3E"/>
</svg>
