<svg width="8" height="12" viewBox="0 0 8 12" fill="none" xmlns="http://www.w3.org/2000/svg">
<path d="M1.7831 10.6551H1.73321L1.60344 11.4411H0.485474V0.371933H1.88296V3.39745V4.75024C2.58382 4.13358 3.49867 3.76163 4.46822 3.69911C6.60434 3.69911 7.7423 5.21645 7.7423 7.53815C7.7423 10.1249 6.05536 11.6239 4.17877 11.6239C3.27691 11.5832 2.42345 11.238 1.7831 10.6551ZM6.265 7.55639C6.265 5.89281 5.64608 4.81423 4.08891 4.81423C3.23773 4.88479 2.4484 5.25111 1.88296 5.83796V9.80499C2.43045 10.2673 3.13585 10.5418 3.87933 10.5819C5.25682 10.5454 6.265 9.42107 6.265 7.55639Z" fill="#4C3E3E"/>
</svg>
