<svg width="5" height="4" viewBox="0 0 5 4" fill="none" xmlns="http://www.w3.org/2000/svg">
<path d="M4.10251 1.83666C4.10251 2.14076 4.00392 2.43802 3.81921 2.69074C3.6345 2.94346 3.37197 3.14032 3.06497 3.25628C2.75796 3.37223 2.42031 3.40208 2.09475 3.34208C1.76918 3.28209 1.47039 3.13493 1.23626 2.91925C1.00214 2.70358 0.843208 2.42909 0.779634 2.13061C0.71606 1.83213 0.750728 1.5231 0.879184 1.24267C1.00764 0.962236 1.22408 0.723028 1.50116 0.555397C1.77824 0.387766 2.10347 0.299242 2.43556 0.301053C2.65531 0.301049 2.87291 0.340871 3.07581 0.418155C3.27871 0.495438 3.46287 0.60867 3.6178 0.751385C3.77272 0.894101 3.89535 1.06344 3.97853 1.2497C4.06171 1.43595 4.10383 1.63543 4.10251 1.83666Z" fill="#FCFAFF"/>
</svg>
