<svg width="7" height="9" viewBox="0 0 7 9" fill="none" xmlns="http://www.w3.org/2000/svg">
<path d="M0.510892 6.47594C0.510892 4.83064 2.05809 4.00797 5.5717 3.66063C5.5717 2.69174 5.22232 1.75023 3.87477 1.75023C2.98408 1.79632 2.12737 2.07902 1.40928 2.56376L0.870224 1.6497C1.82236 1.04305 2.9452 0.700321 4.1044 0.662506C6.10077 0.662506 6.96918 1.88736 6.96918 3.77032V8.40458H5.82124L5.70147 7.49053C4.95741 8.1302 3.99465 8.51451 2.97644 8.57825C2.65933 8.60689 2.33918 8.57338 2.03729 8.48001C1.7354 8.38663 1.45867 8.2355 1.22547 8.03665C0.992276 7.8378 0.807971 7.59583 0.68477 7.32673C0.561569 7.05763 0.502273 6.76762 0.510892 6.47594ZM5.5717 6.59477V4.50155C2.81671 4.80319 1.8784 5.4156 1.8784 6.3845C1.8784 7.3534 2.51725 7.59106 3.32578 7.59106C4.18623 7.53494 4.99026 7.17829 5.5717 6.59477Z" fill="#4C3E3E"/>
</svg>
