<svg width="8" height="9" viewBox="0 0 8 9" fill="none" xmlns="http://www.w3.org/2000/svg">
<path d="M0.0526123 4.67521C0.0526123 2.21641 1.86931 0.699097 3.76586 0.699097C5.87203 0.699097 7.05986 2.07932 7.05986 4.24563C7.06052 4.48778 7.03716 4.72945 6.99001 4.96772H1.4401C1.42118 5.30765 1.47782 5.64757 1.60664 5.96685C1.73546 6.28614 1.93376 6.57811 2.1895 6.82512C2.44525 7.07213 2.75313 7.26902 3.09444 7.40382C3.43576 7.53862 3.80342 7.60855 4.17512 7.60935C4.91126 7.60257 5.62799 7.39226 6.23138 7.00604L6.73047 7.83786C5.92944 8.34548 4.97954 8.61948 4.00542 8.62394C1.79943 8.62394 0.0526123 7.1523 0.0526123 4.67521ZM5.82212 4.05366C5.82212 2.54547 5.08346 1.71368 3.82575 1.71368C3.1797 1.75334 2.57471 2.01785 2.13482 2.45295C1.69494 2.88805 1.45351 3.46076 1.46006 4.05366H5.82212Z" fill="#4C3E3E"/>
</svg>
