<svg width="7" height="9" viewBox="0 0 7 9" fill="none" xmlns="http://www.w3.org/2000/svg">
<path d="M0.557129 7.57274L1.24588 6.73183C1.90912 7.2979 2.77514 7.62292 3.68145 7.64588C4.76948 7.64588 5.3085 7.11576 5.3085 6.47592C5.3085 5.69898 4.3103 5.35163 3.42192 5.04085C2.26402 4.65695 0.956427 4.12679 0.956427 2.86539C0.956427 1.604 2.01448 0.717331 3.80123 0.717331C4.73635 0.728746 5.64003 1.02824 6.36657 1.56745L5.69781 2.39922C5.17178 1.99025 4.51079 1.75524 3.82121 1.73197C2.82303 1.73197 2.30395 2.23471 2.30395 2.8197C2.30395 3.4047 3.20234 3.80687 4.13065 4.12679C5.31849 4.53812 6.6461 4.97687 6.6461 6.41193C6.6461 7.64591 5.58802 8.66047 3.65154 8.66047C2.51488 8.63128 1.42315 8.24752 0.557129 7.57274Z" fill="#4C3E3E"/>
</svg>
