<svg width="8" height="12" viewBox="0 0 8 12" fill="none" xmlns="http://www.w3.org/2000/svg">
<path d="M0.0153809 7.67522C0.0153809 5.22556 1.70233 3.69911 3.5889 3.69911C4.45804 3.71773 5.28508 4.04558 5.89471 4.61316L5.83482 3.31516V0.371933H7.23224V11.4411H6.08436L5.96459 10.5271H5.91463C5.26942 11.1723 4.37325 11.5596 3.41917 11.6056C1.35292 11.6239 0.0153809 10.1889 0.0153809 7.67522ZM5.83482 9.50333V5.54546C5.3067 5.05515 4.59036 4.7731 3.83845 4.75939C2.52084 4.75939 1.47275 5.92026 1.47275 7.63868C1.47275 9.35711 2.29122 10.5271 3.73859 10.5271C4.14632 10.507 4.54457 10.4069 4.90627 10.2334C5.26797 10.0599 5.58468 9.81716 5.83482 9.52163V9.50333Z" fill="#4C3E3E"/>
</svg>
