<svg width="17" height="15" viewBox="0 0 17 15" fill="none" xmlns="http://www.w3.org/2000/svg">
<path d="M16.5562 7.75107C16.5562 9.16299 16.099 10.5432 15.2424 11.7171C14.3858 12.8911 13.1682 13.8061 11.7437 14.3465C10.3192 14.8868 8.75173 15.0281 7.23949 14.7527C5.72724 14.4772 4.33817 13.7973 3.2479 12.799C2.15764 11.8006 1.41513 10.5286 1.11433 9.1438C0.813527 7.75902 0.967934 6.32361 1.55798 5.01917C2.14803 3.71473 3.14727 2.59982 4.42929 1.81541C5.7113 1.03099 7.21853 0.612305 8.7604 0.612305C10.828 0.612305 12.8109 1.3644 14.2729 2.70318C15.7349 4.04196 16.5562 5.85775 16.5562 7.75107Z" fill="#FCFAFF"/>
</svg>
