<svg width="144" height="143" viewBox="0 0 144 143" fill="none" xmlns="http://www.w3.org/2000/svg">
<path d="M0 65.4305L0.264313 63.4309L12.3292 65.0515L13.1605 58.7627L14.9677 59.0055L13.8722 67.2939L0 65.4305Z" fill="white"/>
<path d="M13.4509 48.7375L11.5213 54.9674C12.3766 55.1873 13.1334 55.1155 13.7917 54.7521C14.4519 54.3822 14.9103 53.7832 15.1667 52.9551C15.5246 51.7996 15.4977 50.6217 15.086 49.4213L16.7879 49.957C16.9779 50.6085 17.0669 51.2248 17.0548 51.8057C17.0448 52.3803 16.9294 53.0238 16.7087 53.7363C16.4065 54.7121 15.9612 55.4384 15.3727 55.9154C14.7842 56.3924 14.0954 56.7076 13.3064 56.8608C12.513 57.0056 11.6701 56.9375 10.7777 56.6566C9.43909 56.2353 8.47055 55.5113 7.8721 54.4845C7.26728 53.4558 7.15375 52.3316 7.53151 51.112C7.89536 49.9372 8.5936 49.1284 9.62624 48.6856C10.6589 48.2427 11.8604 48.2369 13.2309 48.6683L13.4509 48.7375ZM10.491 54.6008L11.8718 50.1427C11.1631 49.9689 10.563 50.009 10.0716 50.2629C9.58022 50.5169 9.23709 50.9584 9.04225 51.5875C8.8474 52.2166 8.87539 52.7925 9.12622 53.3153C9.37904 53.8317 9.83397 54.2602 10.491 54.6008Z" fill="white"/>
<path d="M10.7313 46.0113L9.1743 41.4473L10.887 42.2721L12.1392 39.63L13.6175 40.342L12.3653 42.9842L16.4306 44.9422C17.3801 45.3995 18.0427 45.2317 18.4185 44.4387C18.6997 43.8455 18.7983 43.1235 18.7144 42.2727L20.2468 43.0107C20.3001 43.8171 20.1489 44.5955 19.7932 45.3461C19.4346 46.1028 18.9169 46.6266 18.2401 46.9178C18.0333 47.0115 17.8243 47.0707 17.6133 47.0954C17.3963 47.1173 17.1384 47.1009 16.8395 47.0462C16.5375 46.9825 16.011 46.7698 15.2598 46.408L11.5821 44.6367L10.8935 46.0894L10.7313 46.0113Z" fill="white"/>
<path d="M22.2756 30.815L20.6038 31.4273C19.553 31.8095 18.6815 31.9831 17.9895 31.9483C17.2964 31.904 16.6639 31.6497 16.092 31.1855C15.2341 30.4891 14.7759 29.6249 14.7175 28.5929C14.6633 27.5556 15.0191 26.5575 15.785 25.5986C16.5174 24.6816 17.4439 24.0473 18.5645 23.6959L20.3349 25.1329C18.949 25.3122 17.892 25.8577 17.1637 26.7695C16.7536 27.283 16.5363 27.8019 16.5118 28.3261C16.4821 28.8462 16.6518 29.256 17.0209 29.5556C17.3485 29.8215 17.7515 29.95 18.23 29.9411C18.7085 29.9321 19.3193 29.7844 20.0623 29.4979L21.7248 28.8651C23.5865 28.1651 25.1309 28.3131 26.358 29.3091C27.2315 30.0181 27.7047 30.8902 27.7777 31.9254C27.8549 32.9555 27.5168 33.9421 26.7635 34.8853C25.8971 35.9699 24.778 36.6897 23.4062 37.0445L21.4252 35.4366C23.1691 35.4529 24.4868 34.903 25.3783 33.7868C25.7717 33.2943 25.963 32.7758 25.9521 32.2315C25.9402 31.6777 25.7289 31.2341 25.3181 30.9007C24.6526 30.3605 23.6384 30.3319 22.2756 30.815Z" fill="white"/>
<path d="M24.3056 25.4824L24.4923 20.6473L25.7964 22.0433L27.9174 20.0297L29.043 21.2347L26.9219 23.2482L30.0173 26.5618C30.7403 27.3357 31.42 27.4205 32.0566 26.8162C32.5328 26.3642 32.8847 25.7251 33.1124 24.899L34.2792 26.148C34.0389 26.9214 33.6175 27.594 33.0149 28.166C32.4075 28.7427 31.7352 29.0436 30.9978 29.0689C30.7708 29.0811 30.5543 29.0603 30.3481 29.0064C30.1374 28.9477 29.9022 28.8383 29.6426 28.6781C29.3832 28.5084 28.9676 28.1175 28.3956 27.5052L25.5954 24.5075L24.4292 25.6146L24.3056 25.4824Z" fill="white"/>
<path d="M36.8458 17.5695L39.1158 20.7653C39.2977 21.0214 39.4752 21.087 39.6482 20.9621C39.8266 20.8333 40.0103 20.4987 40.1992 19.9585L40.8436 20.8658C40.6632 21.3257 40.4973 21.668 40.346 21.8926C40.204 22.1187 40.0221 22.3118 39.8004 22.4719C39.1677 22.9286 38.6166 22.9472 38.147 22.5279C37.868 23.4711 37.3744 24.1983 36.666 24.7096C36.1469 25.0844 35.5924 25.225 35.0025 25.1315C34.4087 25.0326 33.9261 24.7216 33.5545 24.1985C33.2178 23.7244 33.0855 23.1812 33.1575 22.5686C33.2311 21.9468 33.5015 21.3024 33.9685 20.6356L35.3939 18.6175L35.1095 18.217C34.467 17.3125 33.6969 17.1842 32.7993 17.8322C31.9936 18.4138 31.5075 19.3993 31.3411 20.7888L30.1858 19.1623C30.2752 18.0674 30.858 17.1316 31.934 16.3549C32.7397 15.7733 33.5368 15.5194 34.3254 15.5931C34.5844 15.6122 34.86 15.6894 35.1524 15.8246C35.4408 15.9543 35.6826 16.1219 35.8776 16.3273C36.0741 16.5234 36.3969 16.9374 36.8458 17.5695ZM37.5478 21.6498L35.9629 19.4185L35.2462 20.517C34.8865 21.0816 34.6748 21.5435 34.6109 21.9028C34.5487 22.2527 34.6259 22.5803 34.8426 22.8854C35.0633 23.196 35.3406 23.3791 35.6746 23.4347C36.014 23.4865 36.3405 23.3991 36.6541 23.1728C37.1246 22.8332 37.4225 22.3255 37.5478 21.6498Z" fill="white"/>
<path d="M40.1584 11.606L41.1305 13.4958L41.1457 13.306C41.2739 11.6252 41.7292 10.5803 42.5116 10.1713C43.1221 9.85218 43.919 9.82957 44.9023 10.1035L44.7859 11.9827C43.9464 11.7397 43.2865 11.7437 42.8064 11.9946C42.2848 12.2673 41.9604 12.7551 41.8331 13.4581C41.7118 14.1579 41.8277 14.8512 42.181 15.5378L44.397 19.8458L42.77 20.6963L38.5313 12.4566L40.1584 11.606Z" fill="white"/>
<path d="M46.4528 10.1192L48.5468 5.76516L49.1868 7.56997L51.9315 6.58091L52.4839 8.13874L49.7392 9.1278L51.2583 13.4118C51.6131 14.4124 52.2023 14.7643 53.0261 14.4674C53.6423 14.2454 54.219 13.8019 54.7562 13.1369L55.3288 14.7518C54.801 15.3633 54.1473 15.8096 53.3676 16.0905C52.5816 16.3738 51.8457 16.3783 51.1599 16.1041C50.947 16.0237 50.7567 15.9172 50.5892 15.7848C50.4195 15.646 50.2474 15.4508 50.0732 15.1994C49.903 14.9394 49.6775 14.4135 49.3968 13.622L48.0226 9.74638L46.5134 10.2902L46.4528 10.1192Z" fill="white"/>
<path d="M72.9429 3.3609L74.8923 3.23279L71.4429 12.9202L70.873 12.9577L67.7267 6.68546L65.4648 13.3131L64.875 13.3519L60.1672 4.20052L62.1165 4.07241L64.8889 9.53027L66.8649 3.76035L68.2145 3.67165L70.9069 9.13477L72.9429 3.3609Z" fill="white"/>
<path d="M78.9999 0.00516469C79.299 0.0351497 79.5446 0.164517 79.7368 0.393266C79.929 0.622015 80.0102 0.886942 79.9805 1.18804C79.9515 1.48246 79.8201 1.72606 79.5863 1.91886C79.3525 2.11165 79.086 2.19306 78.787 2.16307C78.5079 2.13508 78.2725 2.00337 78.081 1.76793C77.8901 1.5258 77.8089 1.26087 77.8373 0.973152C77.865 0.692123 77.9957 0.45521 78.2295 0.262415C78.464 0.0629288 78.7208 -0.0228213 78.9999 0.00516469ZM77.7195 3.79944L79.5338 3.98135L78.6227 13.2152L76.8084 13.0333L77.7195 3.79944Z" fill="white"/>
<path d="M81.3884 5.61957L85.4035 2.96794L85.0333 4.84771L87.8926 5.42L87.573 7.04254L84.7137 6.47025L83.8349 10.9322C83.6297 11.9743 83.9561 12.5813 84.8142 12.753C85.4561 12.8815 86.177 12.7996 86.9767 12.5072L86.6455 14.1891C85.881 14.4405 85.0927 14.485 84.2804 14.3224C83.4616 14.1585 82.8278 13.7814 82.3789 13.1911C82.2372 13.0119 82.1282 12.8221 82.0519 12.6218C81.9769 12.4148 81.9287 12.1583 81.9073 11.8524C81.8937 11.5412 81.9681 10.9733 82.1304 10.1489L82.9255 6.11232L81.3534 5.79765L81.3884 5.61957Z" fill="white"/>
<path d="M92.4428 1.64972L94.1564 2.27454L92.1218 7.94501C93.1527 7.32723 94.1985 7.21173 95.2593 7.59853C95.8368 7.8091 96.3025 8.14332 96.6564 8.60119C97.0103 9.05906 97.2052 9.58407 97.2412 10.1762C97.2834 10.7707 97.1231 11.5736 96.7602 12.5851L94.9774 17.5538L93.2637 16.929L95.1997 11.5335C95.4287 10.8951 95.4555 10.3258 95.28 9.82574C95.1131 9.32165 94.7754 8.97691 94.267 8.79152C93.8904 8.6542 93.5005 8.62287 93.0975 8.69753C92.6946 8.7722 92.2105 8.96387 91.6455 9.27254L89.4034 15.5214L87.6898 14.8966L92.4428 1.64972Z" fill="white"/>
<path d="M106.985 24.6366L107.659 23.6706C107.1 23.793 106.549 23.8055 106.005 23.708C105.466 23.6143 104.995 23.4244 104.591 23.1381C104.116 22.8015 103.758 22.3717 103.519 21.8488C103.289 21.3242 103.212 20.7847 103.289 20.2304C103.374 19.6744 103.749 18.9203 104.412 17.968L107.445 13.6169L108.936 14.6731L105.915 19.0077C105.359 19.8058 105.082 20.4438 105.083 20.9217C105.094 21.3979 105.383 21.8372 105.951 22.2395C106.662 22.7425 107.509 22.8204 108.493 22.4734L112.279 17.0407L113.77 18.0969L108.477 25.6928L106.985 24.6366Z" fill="white"/>
<path d="M110.485 26.5634L111.846 25.1379C111.966 25.7589 112.14 26.3384 112.368 26.8764C112.605 27.4143 112.855 27.8115 113.12 28.0681C113.394 28.334 113.695 28.4946 114.021 28.5501C114.348 28.6056 114.602 28.5388 114.782 28.3497C114.967 28.1557 115.055 27.9328 115.046 27.6807C115.045 27.4285 114.949 26.976 114.757 26.323C114.364 25.0269 114.195 24.0832 114.25 23.4921C114.314 22.9008 114.536 22.4063 114.915 22.0087C115.406 21.4947 116.003 21.2666 116.708 21.3242C117.417 21.3865 118.084 21.7209 118.709 22.3273C119.359 22.957 119.849 23.7873 120.181 24.8182L118.931 26.1274C118.605 24.8965 118.195 24.0409 117.699 23.5604C117.444 23.3132 117.184 23.1684 116.919 23.1259C116.664 23.0834 116.45 23.1518 116.279 23.3312C116.131 23.4863 116.059 23.7019 116.065 23.9777C116.075 24.2583 116.163 24.6706 116.329 25.2146L116.541 25.9385C117.046 27.6417 116.933 28.8764 116.202 29.6425C115.679 30.1904 115.035 30.4338 114.269 30.3726C113.513 30.3112 112.8 29.9563 112.131 29.3079C111.737 28.9254 111.425 28.5437 111.196 28.1627C110.971 27.7769 110.735 27.2438 110.485 26.5634Z" fill="white"/>
<path d="M144 76.8698L143.753 78.8717L131.675 77.3593L130.899 83.6553L129.09 83.4287L130.112 75.1309L144 76.8698Z" fill="white"/>
<path d="M130.764 93.7238L132.641 87.4584C131.782 87.2459 131.023 87.325 130.367 87.6957C129.708 88.0728 129.254 88.6777 129.004 89.5105C128.656 90.6726 128.694 91.8536 129.118 93.0535L127.406 92.5322C127.21 91.8806 127.115 91.2635 127.122 90.6808C127.126 90.1045 127.236 89.4581 127.451 88.7415C127.745 87.7602 128.185 87.0277 128.77 86.5438C129.356 86.06 130.044 85.7375 130.834 85.5765C131.628 85.4238 132.474 85.4842 133.372 85.7575C134.718 86.1675 135.696 86.8844 136.305 87.9084C136.921 88.9344 137.046 90.0606 136.678 91.2873C136.324 92.4687 135.631 93.2863 134.6 93.7401C133.568 94.1939 132.363 94.2109 130.985 93.7912L130.764 93.7238ZM133.678 87.8164L132.334 92.2999C133.047 92.4675 133.648 92.4217 134.139 92.1625C134.629 91.9032 134.969 91.4572 135.159 90.8246C135.348 90.1919 135.315 89.6146 135.058 89.0927C134.8 88.5773 134.34 88.1518 133.678 87.8164Z" fill="white"/>
<path d="M133.204 96.2552L134.812 100.814L133.087 100.005L131.859 102.667L130.369 101.969L131.597 99.3071L127.501 97.387C126.545 96.9385 125.882 97.1138 125.514 97.9127C125.238 98.5103 125.147 99.2352 125.24 100.087L123.696 99.3635C123.634 98.5557 123.777 97.7737 124.126 97.0174C124.478 96.2551 124.991 95.7245 125.667 95.4255C125.873 95.3294 126.082 95.2678 126.293 95.2408C126.511 95.2166 126.769 95.2303 127.07 95.282C127.373 95.3427 127.903 95.5504 128.66 95.9052L132.365 97.6422L133.04 96.1786L133.204 96.2552Z" fill="white"/>
<path d="M122.036 111.675L123.702 111.047C124.75 110.655 125.619 110.474 126.312 110.502C127.005 110.54 127.64 110.789 128.216 111.248C129.08 111.936 129.546 112.796 129.614 113.828C129.677 114.864 129.331 115.866 128.573 116.832C127.849 117.755 126.928 118.398 125.811 118.76L124.028 117.339C125.412 117.147 126.464 116.592 127.184 115.673C127.59 115.156 127.802 114.635 127.822 114.111C127.847 113.59 127.674 113.182 127.302 112.886C126.972 112.623 126.568 112.498 126.089 112.512C125.611 112.525 125.001 112.678 124.261 112.971L122.604 113.619C120.749 114.336 119.203 114.203 117.967 113.218C117.087 112.517 116.606 111.649 116.524 110.615C116.438 109.585 116.767 108.596 117.512 107.646C118.368 106.553 119.481 105.823 120.849 105.456L122.845 107.045C121.101 107.045 119.788 107.607 118.907 108.731C118.518 109.227 118.331 109.748 118.347 110.292C118.364 110.845 118.579 111.287 118.993 111.617C119.663 112.151 120.678 112.17 122.036 111.675Z" fill="white"/>
<path d="M120.053 117.026L119.909 121.863L118.593 120.479L116.49 122.511L115.354 121.317L117.456 119.284L114.331 115.999C113.601 115.232 112.921 115.153 112.29 115.763C111.818 116.219 111.472 116.862 111.251 117.69L110.073 116.451C110.307 115.676 110.722 114.999 111.319 114.422C111.922 113.84 112.591 113.533 113.328 113.501C113.555 113.486 113.772 113.505 113.979 113.557C114.19 113.614 114.426 113.721 114.687 113.879C114.948 114.046 115.367 114.434 115.944 115.041L118.772 118.013L119.928 116.895L120.053 117.026Z" fill="white"/>
<path d="M107.437 124.869L105.125 121.686C104.94 121.431 104.761 121.367 104.589 121.494C104.411 121.625 104.23 121.963 104.046 122.507L103.39 121.603C103.566 121.139 103.729 120.794 103.879 120.567C104.019 120.339 104.2 120.143 104.421 119.98C105.051 119.515 105.604 119.49 106.08 119.906C106.35 118.957 106.838 118.222 107.543 117.701C108.061 117.319 108.616 117.172 109.209 117.26C109.806 117.353 110.293 117.66 110.672 118.181C111.015 118.654 111.153 119.197 111.087 119.813C111.02 120.438 110.755 121.088 110.293 121.762L108.883 123.802L109.173 124.201C109.827 125.102 110.601 125.223 111.496 124.563C112.298 123.971 112.776 122.977 112.929 121.58L114.105 123.201C114.027 124.301 113.452 125.246 112.38 126.037C111.577 126.629 110.779 126.892 109.987 126.827C109.727 126.81 109.45 126.736 109.155 126.603C108.864 126.476 108.619 126.31 108.422 126.106C108.222 125.911 107.894 125.499 107.437 124.869ZM106.69 120.781L108.304 123.004L109.012 121.894C109.367 121.324 109.575 120.858 109.635 120.497C109.694 120.145 109.613 119.817 109.392 119.513C109.168 119.203 108.888 119.022 108.552 118.97C108.211 118.922 107.884 119.013 107.571 119.243C107.103 119.589 106.809 120.102 106.69 120.781Z" fill="white"/>
<path d="M104.317 131.051L103.328 129.17L103.315 129.36C103.202 131.042 102.756 132.091 101.977 132.507C101.369 132.831 100.573 132.861 99.5868 132.596L99.6866 130.716C100.528 130.951 101.188 130.941 101.666 130.686C102.185 130.409 102.505 129.918 102.626 129.214C102.741 128.513 102.619 127.821 102.26 127.138L100.006 122.85L101.625 121.984L105.937 130.186L104.317 131.051Z" fill="white"/>
<path d="M98.0458 132.588L95.9911 136.961L95.3349 135.162L92.5992 136.176L92.0328 134.623L94.7685 133.609L93.2109 129.339C92.8471 128.342 92.2547 127.996 91.4337 128.3C90.8195 128.528 90.2468 128.976 89.7156 129.646L89.1285 128.037C89.6507 127.42 90.3004 126.968 91.0775 126.68C91.861 126.39 92.5968 126.378 93.2851 126.646C93.4987 126.725 93.6898 126.829 93.8585 126.96C94.0295 127.098 94.2033 127.291 94.3798 127.541C94.5524 127.799 94.7826 128.323 95.0704 129.112L96.4795 132.975L97.9836 132.417L98.0458 132.588Z" fill="white"/>
<path d="M71.5468 139.612L69.5933 139.75L73.005 130.022L73.576 129.982L76.7599 136.254L78.9957 129.599L79.5868 129.558L84.3497 138.708L82.3962 138.846L79.5911 133.389L77.6377 139.182L76.2853 139.278L73.5603 133.814L71.5468 139.612Z" fill="white"/>
<path d="M65.5821 142.996C65.2827 142.968 65.036 142.841 64.8418 142.614C64.6476 142.387 64.564 142.123 64.591 141.822C64.6175 141.527 64.7467 141.282 64.9788 141.087C65.2109 140.892 65.4766 140.809 65.7759 140.836C66.0553 140.861 66.2917 140.991 66.4854 141.225C66.6784 141.465 66.7619 141.729 66.7361 142.017C66.7109 142.299 66.5822 142.537 66.3501 142.732C66.1174 142.933 65.8614 143.021 65.5821 142.996ZM66.8289 139.19L65.0131 139.024L65.8426 129.783L67.6584 129.948L66.8289 139.19Z" fill="white"/>
<path d="M63.1349 137.407L59.1429 140.094L59.4968 138.211L56.6327 137.664L56.9382 136.038L59.8023 136.585L60.6425 132.116C60.8387 131.072 60.5071 130.468 59.6475 130.304C59.0045 130.181 58.2843 130.269 57.4872 130.569L57.8039 128.884C58.5661 128.626 59.354 128.574 60.1677 128.73C60.9879 128.886 61.6249 129.258 62.0789 129.844C62.2222 130.022 62.3328 130.211 62.4108 130.411C62.4876 130.617 62.538 130.873 62.5621 131.179C62.5784 131.49 62.5089 132.058 62.3537 132.884L61.5937 136.928L63.1684 137.228L63.1349 137.407Z" fill="white"/>
<path d="M52.0987 141.695L50.3669 141.089L52.3416 135.358C51.3124 135.993 50.2617 136.123 49.1896 135.747C48.606 135.543 48.1332 135.213 47.7714 134.757C47.4096 134.301 47.2068 133.775 47.1631 133.18C47.113 132.582 47.2641 131.772 47.6164 130.75L49.3467 125.729L51.0786 126.335L49.1996 131.788C48.9773 132.433 48.9575 133.006 49.1404 133.507C49.3148 134.012 49.6589 134.354 50.1728 134.534C50.5534 134.668 50.9459 134.694 51.3504 134.614C51.7549 134.533 52.2394 134.334 52.8039 134.017L54.98 127.701L56.7119 128.308L52.0987 141.695Z" fill="white"/>
<path d="M37.2234 118.859L36.5559 119.828C37.113 119.702 37.6634 119.687 38.2071 119.782C38.7453 119.873 39.217 120.06 39.6221 120.344C40.0983 120.678 40.4572 121.105 40.6988 121.626C40.931 122.149 41.0104 122.687 40.937 123.241C40.8543 123.797 40.4839 124.552 39.8259 125.506L36.8192 129.866L35.3247 128.819L38.32 124.475C38.8715 123.675 39.1454 123.037 39.1415 122.56C39.1284 122.084 38.8372 121.647 38.2679 121.248C37.5562 120.749 36.7098 120.676 35.7286 121.027L31.9745 126.472L30.48 125.424L35.7289 117.812L37.2234 118.859Z" fill="white"/>
<path d="M33.8693 116.727L32.5216 118.165C32.3955 117.545 32.2164 116.967 31.9842 116.431C31.7425 115.895 31.4883 115.5 31.2214 115.246C30.9449 114.983 30.643 114.825 30.3158 114.772C29.9885 114.72 29.7355 114.789 29.5567 114.98C29.3734 115.175 29.2876 115.399 29.2994 115.651C29.3017 115.903 29.4018 116.355 29.5995 117.006C30.0041 118.298 30.1816 119.241 30.1321 119.832C30.0732 120.424 29.8558 120.92 29.4799 121.321C28.994 121.84 28.3986 122.073 27.6937 122.022C26.9839 121.966 26.3137 121.638 25.683 121.037C25.0281 120.413 24.5304 119.587 24.1899 118.559L25.4276 117.239C25.7642 118.467 26.1824 119.319 26.6821 119.795C26.9392 120.04 27.2005 120.182 27.466 120.222C27.7221 120.263 27.935 120.192 28.1046 120.011C28.2513 119.855 28.3208 119.639 28.313 119.363C28.3004 119.082 28.2086 118.671 28.0375 118.128L27.819 117.406C27.2991 115.708 27.4013 114.472 28.1256 113.699C28.6436 113.147 29.2858 112.898 30.0522 112.952C30.8091 113.007 31.5248 113.355 32.1991 113.998C32.5969 114.377 32.9121 114.755 33.1446 115.134C33.3726 115.518 33.6141 116.049 33.8693 116.727Z" fill="white"/>
<path d="M128.015 54.4395C129.745 54.4395 131.148 53.0256 131.148 51.2814C131.148 49.5373 129.745 48.1234 128.015 48.1234C126.285 48.1234 124.882 49.5373 124.882 51.2814C124.882 53.0256 126.285 54.4395 128.015 54.4395Z" fill="white"/>
<path d="M16.152 95.4836C17.8822 95.4836 19.2848 94.0697 19.2848 92.3255C19.2848 90.5814 17.8822 89.1675 16.152 89.1675C14.4219 89.1675 13.0193 90.5814 13.0193 92.3255C13.0193 94.0697 14.4219 95.4836 16.152 95.4836Z" fill="white"/>
</svg>
