<svg width="19" height="72" viewBox="0 0 19 72" fill="none" xmlns="http://www.w3.org/2000/svg">
<path d="M0.776794 71.3446C1.68709 69.778 2.2566 68.0644 2.45374 66.299C2.85301 63.959 3.15249 61.2534 3.35213 58.1822C3.55177 55.111 3.61165 51.8204 3.5318 48.3104C3.45194 44.8004 3.31215 41.3819 3.11251 38.0547C2.91288 34.7276 2.63008 31.6259 2.26408 28.7497C1.97628 26.4604 1.53625 24.1893 0.946469 21.9491L18.6742 16.4648C17.8845 19.3572 17.2647 22.2864 16.8176 25.2397C16.2986 28.5303 15.8793 31.9854 15.5599 35.6051C15.2405 39.2247 15.0808 42.8627 15.0808 46.5189C15.0808 50.1751 15.2006 53.5937 15.4401 56.7746C15.6388 59.6651 16.0389 62.5411 16.638 65.385C17.0117 67.4509 17.7393 69.45 18.794 71.3081L0.776794 71.3446ZM9.16151 11.2363C8.37279 11.2437 7.5904 11.1068 6.86016 10.8338C6.12991 10.5608 5.46649 10.1571 4.90875 9.64637C4.351 9.13563 3.91018 8.52813 3.61203 7.85943C3.31389 7.19073 3.16439 6.47426 3.1724 5.75201C3.17569 5.0264 3.33621 4.30859 3.64463 3.64018C3.95305 2.97178 4.40328 2.36609 4.96918 1.85816C5.50654 1.3261 6.1573 0.90056 6.8813 0.607857C7.60529 0.315154 8.38711 0.161493 9.17851 0.156353C9.96991 0.151213 10.754 0.294712 11.4825 0.577982C12.2109 0.861252 12.8683 1.27829 13.4138 1.80331C13.9761 2.32228 14.4194 2.93894 14.7177 3.61706C15.016 4.29518 15.1631 5.02104 15.1506 5.75201C15.1586 6.47426 15.0092 7.19073 14.7111 7.85943C14.4129 8.52813 13.9721 9.13563 13.4143 9.64637C12.8566 10.1571 12.1932 10.5608 11.4629 10.8338C10.7327 11.1068 9.95024 11.2437 9.16151 11.2363Z" fill="#362E39"/>
</svg>
