<svg width="11" height="10" viewBox="0 0 11 10" fill="none" xmlns="http://www.w3.org/2000/svg">
<path d="M10.8956 5.19195C10.8956 6.09586 10.6029 6.97946 10.0545 7.73104C9.5061 8.48262 8.72665 9.06841 7.81468 9.41432C6.90271 9.76024 5.89921 9.85076 4.93107 9.67441C3.96292 9.49807 3.07359 9.06278 2.3756 8.42361C1.6776 7.78445 1.20231 6.97012 1.00973 6.08358C0.817155 5.19703 0.915948 4.27806 1.2937 3.44295C1.67145 2.60784 2.31116 1.89409 3.13191 1.3919C3.95266 0.889715 4.91759 0.621674 5.9047 0.621674C7.22838 0.621674 8.49789 1.10319 9.43387 1.96029C10.3698 2.81738 10.8956 3.97984 10.8956 5.19195Z" fill="#FCFAFF"/>
</svg>
