<svg width="4" height="4" viewBox="0 0 4 4" fill="none" xmlns="http://www.w3.org/2000/svg">
<path d="M3.63247 2.18595C3.63445 2.50671 3.53225 2.82078 3.33888 3.08823C3.1455 3.35569 2.86968 3.56444 2.54643 3.68803C2.22319 3.81161 1.8671 3.84445 1.52345 3.78231C1.1798 3.72018 0.864099 3.56588 0.61641 3.33906C0.368721 3.11225 0.200219 2.82316 0.132366 2.50847C0.0645127 2.19378 0.100369 1.86771 0.235328 1.57171C0.370288 1.27571 0.598255 1.02313 0.890326 0.846054C1.1824 0.668977 1.52538 0.575398 1.87566 0.577205C2.34159 0.577205 2.78844 0.746706 3.1179 1.0484C3.44737 1.3501 3.63247 1.75929 3.63247 2.18595Z" fill="#362E39"/>
</svg>
