<svg width="13" height="9" viewBox="0 0 13 9" fill="none" xmlns="http://www.w3.org/2000/svg">
<path d="M0.989106 0.881908H2.13701L2.25682 1.97873C2.56569 1.6157 2.95283 1.31478 3.39416 1.09463C3.83549 0.874483 4.32155 0.739845 4.82213 0.699086C5.32558 0.660456 5.82803 0.783425 6.24329 1.04693C6.65854 1.31044 6.96071 1.69803 7.09799 2.14325C7.41778 1.74243 7.82525 1.40705 8.29443 1.1584C8.7636 0.909749 9.28421 0.753317 9.82305 0.699086C11.51 0.699086 12.3285 1.72281 12.3285 3.65147V8.44111H10.9311V3.81599C10.9311 2.40834 10.4519 1.80506 9.40383 1.80506C8.98832 1.85476 8.58883 1.98379 8.23119 2.18376C7.87355 2.38372 7.5657 2.65018 7.32759 2.96592V8.45026H5.94013V3.82514C5.94013 2.41749 5.45101 1.81421 4.40291 1.81421C3.99022 1.86833 3.594 1.99929 3.23865 2.19893C2.88329 2.39857 2.57633 2.6627 2.33666 2.97507V8.4594H0.939209L0.989106 0.881908Z" fill="#4C3E3E"/>
</svg>
